<?xml version="1.0" encoding="utf-8"?>
<!-- Generator: Adobe Illustrator 23.0.2, SVG Export Plug-In . SVG Version: 6.00 Build 0)  -->
<svg version="1.1" id="LOGO" xmlns="http://www.w3.org/2000/svg" xmlns:xlink="http://www.w3.org/1999/xlink" x="0px" y="0px"
	 viewBox="0 30 404.5 123" style="enable-background:new 0 30 404.5 123;" xml:space="preserve">
<style type="text/css">
	.Arched_x0020_Green{fill:url(#SVGID_1_);stroke:#FFFFFF;stroke-width:0.25;stroke-miterlimit:1;}
	.st0{fill:#ED1C24;}
	.st1{enable-background:new    ;}
	.st2{fill:#F37021;}
	.st3{fill:#58595B;stroke:#FFFFFF;stroke-width:7;}
	.st4{fill:#FFFFFF;}
	.st5{fill:#58595B;}
	.st6{fill:#F99D1C;}
	.st7{font-family:'Raleway-Medium';}
	.st8{font-size:49.8712px;}
	.st9{fill:#1B293F;}
	.st10{fill:none;stroke:#F99D1C;stroke-width:10;stroke-linecap:round;stroke-miterlimit:10;}
</style>
<linearGradient id="SVGID_1_" gradientUnits="userSpaceOnUse" x1="-1232.6377" y1="742.9617" x2="-1231.9305" y2="742.2546">
	<stop  offset="0" style="stop-color:#20AC4B"/>
	<stop  offset="0.9831" style="stop-color:#19361A"/>
</linearGradient>
<image style="overflow:visible;enable-background:new    ;" width="988" height="1024" id="Image_3" xlink:href="74A1D6B4C8E429C8.png"  transform="matrix(1 0 0 1 -1791.8192 -897.8664)">
</image>
<text transform="matrix(1 0 0 1 -803.8192 -657.0378)" style="font-family:'Impact'; font-size:170px;">N</text>
<path class="st0" d="M-1430-319c0.2-0.1,0.4-0.2,0.6-0.3c14.4-7.1,30.5-11.1,47.7-11.1c59.6,0,107.8,48.3,107.8,107.8
	c0,51.5-36.1,94.5-84.3,105.3c0,0-0.1,0-0.1,0"/>
<g class="st1">
	<path class="st2" d="M-1358.3-115.9l-2.1,15.5l-38.5-7.8l-1-15.8 M-1424.8-127.2l-2.8,14.3l-39.6-9.5l2.7-13.2"/>
</g>
<g>
	<path d="M-1323.9-299.5l-34.4,182l-41.5-7.8l-9-87.4l-15.6,82.7l-39.6-7.5l34.4-182l39.6,7.5l11,87l15.5-82L-1323.9-299.5z"/>
</g>
<g id="_x33_ID5NX.tif">
	
		<image style="overflow:visible;" width="978" height="1024" id="Layer_0_1_" xlink:href="74A1D6B4C8E429CE.png"  transform="matrix(1 0 0 1 -1812.8868 -1074.3364)">
	</image>
</g>
<g>
	<g>
		<text transform="matrix(1.5217 0 0 1 11.2957 -87.6141)" class="st6" style="font-family:'Impact'; font-size:81.6315px;">N</text>
		<ellipse class="st3" cx="90.3" cy="-119.9" rx="34.5" ry="37.5"/>
		<path class="st4" d="M125.3-112.6h-24.1l-24.9,18l3-23.8c0,0,2.2-21.8,17.8-18.7c0,0,5.4,0.6,6.5,6.5c0,0,0.5,2.4,0.4,3.2
			l19.5,0.2L125.3-112.6z"/>
	</g>
	<text transform="matrix(1 0 0 1 130.6182 -133.3244)"><tspan x="0" y="0" class="st5 st7" style="font-size:33.1548px;">Nuchange</tspan><tspan x="0" y="39.8" class="st5 st7" style="font-size:33.1548px;">Informatics</tspan></text>
</g>
<g>
	<g>
		<g>
			<path class="st5" d="M80.8,88.6c-7.7,0-8.9-5.3-9.1-7.9V51.4c0.2-5.3-4.1-19.2-22.1-19.2C28.6,32.2,26,47.7,26,53.4
				C26,59,26,82,26,82h-8c-1.2-4.3-1.9-8.7-1.9-13.4C16.1,41.8,37.8,20,64.7,20c9.7,0,18.8,2.9,26.3,7.8v52.4
				C91,80.2,89.9,88.6,80.8,88.6z"/>
			<path class="st6" d="M64.7,117.2c-9.3,0-17.9-2.6-25.3-7.1V54.4c0,0,1.1-8.4,10.2-8.4c7.7,0,8.9,5.3,9.1,7.9v29.4
				c0,5.9,4.1,19.6,22.1,19.6c20.9,0,23.6-16,23.6-21.6c0-5.6,0-28.7,0-28.7h6.1c1.8,5,2.7,10.5,2.7,16.1
				C113.2,95.5,91.5,117.2,64.7,117.2z"/>
		</g>
	</g>
	<text transform="matrix(1 0 0 1 126.9952 57.2666)"><tspan x="0" y="0" class="st5 st7 st8">Nuchange</tspan><tspan x="0" y="59.8" class="st5 st7 st8">Informatics</tspan></text>
</g>
<text transform="matrix(1 0 0 1 -366.6533 -897.8664)" style="fill:#F1792C; font-family:'Raleway-Light'; font-size:54px;">Nuchange</text>
<text transform="matrix(1 0 0 1 -366.6533 -837.8664)" style="fill:#F1792C; font-family:'Raleway-Bold'; font-size:50px;">Informatics</text>
<path id="Path_40390" class="st9" d="M-546.3-859.7L-440.5-716v-81h-19.6v25.3h-0.2L-546.3-859.7z"/>
<g>
	
		<rect x="118.1" y="-804.7" transform="matrix(0.9738 -0.2276 0.2276 0.9738 183.6973 8.5467)" class="st6" width="21.6" height="24.6"/>
	
		<rect x="154.1" y="-779.1" transform="matrix(0.9738 -0.2276 0.2276 0.9738 179.1484 17.0498)" class="st6" width="18.8" height="21.4"/>
	
		<rect x="148.6" y="-807.7" transform="matrix(0.9738 -0.2276 0.2276 0.9738 185.8813 14.6358)" class="st6" width="15.7" height="17.9"/>
	
		<rect x="170.1" y="-818.4" transform="matrix(0.9738 -0.2276 0.2276 0.9738 189.4696 18.5842)" class="st6" width="10.5" height="11.9"/>
	
		<rect x="166.9" y="-837.1" transform="matrix(0.9738 -0.2276 0.2276 0.9738 194.0248 16.9497)" class="st6" width="7.3" height="8.3"/>
	
		<rect x="145.7" y="-828.2" transform="matrix(0.9738 -0.2276 0.2276 0.9738 191.0789 12.771)" class="st6" width="10.4" height="11.9"/>
</g>
<g id="uiRMag.tif">
	
		<image style="overflow:visible;" width="354" height="270" id="Layer_0_2_" xlink:href="74A1D6B4C8E429CA.png"  transform="matrix(0.5 0 0 0.5 282.2319 -453.3664)">
	</image>
</g>
<g>
	<text transform="matrix(1 0 0 1 130.618 247.3567)"><tspan x="0" y="0" class="st5" style="font-family:'Raleway-Light'; font-size:45.6108px;">Nuchange</tspan><tspan x="0" y="54.7" class="st5" style="font-family:'Raleway-Light'; font-size:45.6108px;">Informatics</tspan></text>
	<g>
		<line class="st10" x1="29.4" y1="268" x2="55.9" y2="294.4"/>
		<line class="st10" x1="35.5" y1="251.9" x2="61.9" y2="278.4"/>
		<line class="st10" x1="78.7" y1="249.1" x2="104.5" y2="274.9"/>
		<line class="st10" x1="82.2" y1="231.3" x2="108" y2="257.1"/>
		<line class="st10" x1="28.5" y1="221.6" x2="106.1" y2="299.2"/>
	</g>
</g>
<g>
	<g>
		<text transform="matrix(1.5217 0 0 1 -571.8487 -295.2351)" class="st6" style="font-family:'Impact'; font-size:81.6315px;">N</text>
		<ellipse class="st3" cx="-492.9" cy="-327.5" rx="34.5" ry="37.5"/>
		<path class="st4" d="M-457.9-320.2H-482l-24.9,18l3-23.8c0,0,2.2-21.8,17.8-18.7c0,0,5.4,0.6,6.5,6.5c0,0,0.5,2.4,0.4,3.2
			l19.5,0.2L-457.9-320.2z"/>
	</g>
	<text transform="matrix(1 0 0 1 -452.5262 -340.9455)"><tspan x="0" y="0" class="st5 st7" style="font-size:33.1548px;">Nuchange</tspan><tspan x="0" y="39.8" class="st5 st7" style="font-size:33.1548px;">Informatics</tspan></text>
</g>
<g>
	<g>
		<g>
			<path class="st5" d="M-498.7-115.9c-7.7,0-8.9-5.3-9.1-7.9v-29.4c0.2-5.3-4.1-19.2-22.1-19.2c-20.9,0-23.6,15.5-23.6,21.2
				c0,5.6,0,28.6,0,28.6h-8c-1.2-4.3-1.9-8.7-1.9-13.4c0-26.8,21.8-48.6,48.6-48.6c9.7,0,18.8,2.9,26.3,7.8v52.4
				C-488.5-124.3-489.6-115.9-498.7-115.9z"/>
			<path class="st6" d="M-514.9-87.3c-9.3,0-17.9-2.6-25.3-7.1v-55.7c0,0,1.1-8.4,10.2-8.4c7.7,0,8.9,5.3,9.1,7.9v29.4
				c0,5.9,4.1,19.6,22.1,19.6c20.9,0,23.6-16,23.6-21.6c0-5.6,0-28.7,0-28.7h6.1c1.8,5,2.7,10.5,2.7,16.1
				C-466.3-109-488-87.3-514.9-87.3z"/>
		</g>
	</g>
	<text transform="matrix(1 0 0 1 -452.5262 -147.2551)"><tspan x="0" y="0" class="st5 st7 st8">Nuchange</tspan><tspan x="0" y="59.8" class="st5 st7 st8">Informatics</tspan></text>
</g>
<g>
	<text transform="matrix(1 0 0 1 -452.5264 39.7357)"><tspan x="0" y="0" class="st5" style="font-family:'Raleway-Light'; font-size:45.6108px;">Nuchange</tspan><tspan x="0" y="54.7" class="st5" style="font-family:'Raleway-Light'; font-size:45.6108px;">Informatics</tspan></text>
	<g>
		<line class="st10" x1="-553.7" y1="60.4" x2="-527.3" y2="86.8"/>
		<line class="st10" x1="-547.7" y1="44.3" x2="-521.2" y2="70.7"/>
		<line class="st10" x1="-504.4" y1="41.5" x2="-478.6" y2="67.3"/>
		<line class="st10" x1="-500.9" y1="23.7" x2="-475.1" y2="49.5"/>
		<line class="st10" x1="-554.6" y1="13.9" x2="-477" y2="91.5"/>
	</g>
</g>
</svg>
